<?xml version="1.0" encoding="utf-8"?>
<svg width="450" height="110" version="1.1" xmlns="http://www.w3.org/2000/svg" xmlns:xlink="http://www.w3.org/1999/xlink" viewBox="0 0 450 110">
    <linearGradient id="b" x2="0" y2="100%">
        <stop offset="0" stop-color="#6871b4" stop-opacity=".1"></stop>
        <stop offset="1" stop-opacity=".1"></stop>
    </linearGradient>
    <mask id="a">
        <rect width="450" height="110" rx="3" fill="#fff"></rect>
    </mask>
    <g mask="url(#a)">
        <path fill="#989898" d="M0 0h110v110H0z"></path>
        <path fill="#6871b4" d="M110 0h340v110H110z"></path>
        <path fill="url(#b)" d="M110 0h340v110H110z"></path>
    </g>
    <svg x="5" y="5" width="100" height="100">
        <g width="100" height="100">
<rect x="0" y="0" width="100" height="100" style="fill:transparent;shape-rendering:crispEdges;"/>
<rect x="0" y="0" width="3.0303030303030303" height="3.0303030303030303" style="fill:#404040;shape-rendering:crispEdges;"/>
<rect x="3.0303030303030303" y="0" width="3.0303030303030303" height="3.0303030303030303" style="fill:#404040;shape-rendering:crispEdges;"/>
<rect x="6.0606060606060606" y="0" width="3.0303030303030303" height="3.0303030303030303" style="fill:#404040;shape-rendering:crispEdges;"/>
<rect x="9.09090909090909" y="0" width="3.0303030303030303" height="3.0303030303030303" style="fill:#404040;shape-rendering:crispEdges;"/>
<rect x="12.121212121212121" y="0" width="3.0303030303030303" height="3.0303030303030303" style="fill:#404040;shape-rendering:crispEdges;"/>
<rect x="15.151515151515152" y="0" width="3.0303030303030303" height="3.0303030303030303" style="fill:#404040;shape-rendering:crispEdges;"/>
<rect x="18.18181818181818" y="0" width="3.0303030303030303" height="3.0303030303030303" style="fill:#404040;shape-rendering:crispEdges;"/>
<rect x="24.242424242424242" y="0" width="3.0303030303030303" height="3.0303030303030303" style="fill:#404040;shape-rendering:crispEdges;"/>
<rect x="27.272727272727273" y="0" width="3.0303030303030303" height="3.0303030303030303" style="fill:#404040;shape-rendering:crispEdges;"/>
<rect x="36.36363636363636" y="0" width="3.0303030303030303" height="3.0303030303030303" style="fill:#404040;shape-rendering:crispEdges;"/>
<rect x="42.42424242424242" y="0" width="3.0303030303030303" height="3.0303030303030303" style="fill:#404040;shape-rendering:crispEdges;"/>
<rect x="45.45454545454545" y="0" width="3.0303030303030303" height="3.0303030303030303" style="fill:#404040;shape-rendering:crispEdges;"/>
<rect x="54.54545454545455" y="0" width="3.0303030303030303" height="3.0303030303030303" style="fill:#404040;shape-rendering:crispEdges;"/>
<rect x="60.60606060606061" y="0" width="3.0303030303030303" height="3.0303030303030303" style="fill:#404040;shape-rendering:crispEdges;"/>
<rect x="63.63636363636363" y="0" width="3.0303030303030303" height="3.0303030303030303" style="fill:#404040;shape-rendering:crispEdges;"/>
<rect x="72.72727272727272" y="0" width="3.0303030303030303" height="3.0303030303030303" style="fill:#404040;shape-rendering:crispEdges;"/>
<rect x="78.78787878787878" y="0" width="3.0303030303030303" height="3.0303030303030303" style="fill:#404040;shape-rendering:crispEdges;"/>
<rect x="81.81818181818181" y="0" width="3.0303030303030303" height="3.0303030303030303" style="fill:#404040;shape-rendering:crispEdges;"/>
<rect x="84.84848484848484" y="0" width="3.0303030303030303" height="3.0303030303030303" style="fill:#404040;shape-rendering:crispEdges;"/>
<rect x="87.87878787878788" y="0" width="3.0303030303030303" height="3.0303030303030303" style="fill:#404040;shape-rendering:crispEdges;"/>
<rect x="90.9090909090909" y="0" width="3.0303030303030303" height="3.0303030303030303" style="fill:#404040;shape-rendering:crispEdges;"/>
<rect x="93.93939393939394" y="0" width="3.0303030303030303" height="3.0303030303030303" style="fill:#404040;shape-rendering:crispEdges;"/>
<rect x="96.96969696969697" y="0" width="3.0303030303030303" height="3.0303030303030303" style="fill:#404040;shape-rendering:crispEdges;"/>
<rect x="0" y="3.0303030303030303" width="3.0303030303030303" height="3.0303030303030303" style="fill:#404040;shape-rendering:crispEdges;"/>
<rect x="18.18181818181818" y="3.0303030303030303" width="3.0303030303030303" height="3.0303030303030303" style="fill:#404040;shape-rendering:crispEdges;"/>
<rect x="27.272727272727273" y="3.0303030303030303" width="3.0303030303030303" height="3.0303030303030303" style="fill:#404040;shape-rendering:crispEdges;"/>
<rect x="30.303030303030305" y="3.0303030303030303" width="3.0303030303030303" height="3.0303030303030303" style="fill:#404040;shape-rendering:crispEdges;"/>
<rect x="33.333333333333336" y="3.0303030303030303" width="3.0303030303030303" height="3.0303030303030303" style="fill:#404040;shape-rendering:crispEdges;"/>
<rect x="42.42424242424242" y="3.0303030303030303" width="3.0303030303030303" height="3.0303030303030303" style="fill:#404040;shape-rendering:crispEdges;"/>
<rect x="45.45454545454545" y="3.0303030303030303" width="3.0303030303030303" height="3.0303030303030303" style="fill:#404040;shape-rendering:crispEdges;"/>
<rect x="63.63636363636363" y="3.0303030303030303" width="3.0303030303030303" height="3.0303030303030303" style="fill:#404040;shape-rendering:crispEdges;"/>
<rect x="69.6969696969697" y="3.0303030303030303" width="3.0303030303030303" height="3.0303030303030303" style="fill:#404040;shape-rendering:crispEdges;"/>
<rect x="78.78787878787878" y="3.0303030303030303" width="3.0303030303030303" height="3.0303030303030303" style="fill:#404040;shape-rendering:crispEdges;"/>
<rect x="96.96969696969697" y="3.0303030303030303" width="3.0303030303030303" height="3.0303030303030303" style="fill:#404040;shape-rendering:crispEdges;"/>
<rect x="0" y="6.0606060606060606" width="3.0303030303030303" height="3.0303030303030303" style="fill:#404040;shape-rendering:crispEdges;"/>
<rect x="6.0606060606060606" y="6.0606060606060606" width="3.0303030303030303" height="3.0303030303030303" style="fill:#404040;shape-rendering:crispEdges;"/>
<rect x="9.09090909090909" y="6.0606060606060606" width="3.0303030303030303" height="3.0303030303030303" style="fill:#404040;shape-rendering:crispEdges;"/>
<rect x="12.121212121212121" y="6.0606060606060606" width="3.0303030303030303" height="3.0303030303030303" style="fill:#404040;shape-rendering:crispEdges;"/>
<rect x="18.18181818181818" y="6.0606060606060606" width="3.0303030303030303" height="3.0303030303030303" style="fill:#404040;shape-rendering:crispEdges;"/>
<rect x="24.242424242424242" y="6.0606060606060606" width="3.0303030303030303" height="3.0303030303030303" style="fill:#404040;shape-rendering:crispEdges;"/>
<rect x="27.272727272727273" y="6.0606060606060606" width="3.0303030303030303" height="3.0303030303030303" style="fill:#404040;shape-rendering:crispEdges;"/>
<rect x="30.303030303030305" y="6.0606060606060606" width="3.0303030303030303" height="3.0303030303030303" style="fill:#404040;shape-rendering:crispEdges;"/>
<rect x="33.333333333333336" y="6.0606060606060606" width="3.0303030303030303" height="3.0303030303030303" style="fill:#404040;shape-rendering:crispEdges;"/>
<rect x="45.45454545454545" y="6.0606060606060606" width="3.0303030303030303" height="3.0303030303030303" style="fill:#404040;shape-rendering:crispEdges;"/>
<rect x="48.484848484848484" y="6.0606060606060606" width="3.0303030303030303" height="3.0303030303030303" style="fill:#404040;shape-rendering:crispEdges;"/>
<rect x="54.54545454545455" y="6.0606060606060606" width="3.0303030303030303" height="3.0303030303030303" style="fill:#404040;shape-rendering:crispEdges;"/>
<rect x="57.57575757575758" y="6.0606060606060606" width="3.0303030303030303" height="3.0303030303030303" style="fill:#404040;shape-rendering:crispEdges;"/>
<rect x="60.60606060606061" y="6.0606060606060606" width="3.0303030303030303" height="3.0303030303030303" style="fill:#404040;shape-rendering:crispEdges;"/>
<rect x="63.63636363636363" y="6.0606060606060606" width="3.0303030303030303" height="3.0303030303030303" style="fill:#404040;shape-rendering:crispEdges;"/>
<rect x="66.66666666666667" y="6.0606060606060606" width="3.0303030303030303" height="3.0303030303030303" style="fill:#404040;shape-rendering:crispEdges;"/>
<rect x="69.6969696969697" y="6.0606060606060606" width="3.0303030303030303" height="3.0303030303030303" style="fill:#404040;shape-rendering:crispEdges;"/>
<rect x="72.72727272727272" y="6.0606060606060606" width="3.0303030303030303" height="3.0303030303030303" style="fill:#404040;shape-rendering:crispEdges;"/>
<rect x="78.78787878787878" y="6.0606060606060606" width="3.0303030303030303" height="3.0303030303030303" style="fill:#404040;shape-rendering:crispEdges;"/>
<rect x="84.84848484848484" y="6.0606060606060606" width="3.0303030303030303" height="3.0303030303030303" style="fill:#404040;shape-rendering:crispEdges;"/>
<rect x="87.87878787878788" y="6.0606060606060606" width="3.0303030303030303" height="3.0303030303030303" style="fill:#404040;shape-rendering:crispEdges;"/>
<rect x="90.9090909090909" y="6.0606060606060606" width="3.0303030303030303" height="3.0303030303030303" style="fill:#404040;shape-rendering:crispEdges;"/>
<rect x="96.96969696969697" y="6.0606060606060606" width="3.0303030303030303" height="3.0303030303030303" style="fill:#404040;shape-rendering:crispEdges;"/>
<rect x="0" y="9.09090909090909" width="3.0303030303030303" height="3.0303030303030303" style="fill:#404040;shape-rendering:crispEdges;"/>
<rect x="6.0606060606060606" y="9.09090909090909" width="3.0303030303030303" height="3.0303030303030303" style="fill:#404040;shape-rendering:crispEdges;"/>
<rect x="9.09090909090909" y="9.09090909090909" width="3.0303030303030303" height="3.0303030303030303" style="fill:#404040;shape-rendering:crispEdges;"/>
<rect x="12.121212121212121" y="9.09090909090909" width="3.0303030303030303" height="3.0303030303030303" style="fill:#404040;shape-rendering:crispEdges;"/>
<rect x="18.18181818181818" y="9.09090909090909" width="3.0303030303030303" height="3.0303030303030303" style="fill:#404040;shape-rendering:crispEdges;"/>
<rect x="24.242424242424242" y="9.09090909090909" width="3.0303030303030303" height="3.0303030303030303" style="fill:#404040;shape-rendering:crispEdges;"/>
<rect x="42.42424242424242" y="9.09090909090909" width="3.0303030303030303" height="3.0303030303030303" style="fill:#404040;shape-rendering:crispEdges;"/>
<rect x="48.484848484848484" y="9.09090909090909" width="3.0303030303030303" height="3.0303030303030303" style="fill:#404040;shape-rendering:crispEdges;"/>
<rect x="54.54545454545455" y="9.09090909090909" width="3.0303030303030303" height="3.0303030303030303" style="fill:#404040;shape-rendering:crispEdges;"/>
<rect x="57.57575757575758" y="9.09090909090909" width="3.0303030303030303" height="3.0303030303030303" style="fill:#404040;shape-rendering:crispEdges;"/>
<rect x="63.63636363636363" y="9.09090909090909" width="3.0303030303030303" height="3.0303030303030303" style="fill:#404040;shape-rendering:crispEdges;"/>
<rect x="69.6969696969697" y="9.09090909090909" width="3.0303030303030303" height="3.0303030303030303" style="fill:#404040;shape-rendering:crispEdges;"/>
<rect x="78.78787878787878" y="9.09090909090909" width="3.0303030303030303" height="3.0303030303030303" style="fill:#404040;shape-rendering:crispEdges;"/>
<rect x="84.84848484848484" y="9.09090909090909" width="3.0303030303030303" height="3.0303030303030303" style="fill:#404040;shape-rendering:crispEdges;"/>
<rect x="87.87878787878788" y="9.09090909090909" width="3.0303030303030303" height="3.0303030303030303" style="fill:#404040;shape-rendering:crispEdges;"/>
<rect x="90.9090909090909" y="9.09090909090909" width="3.0303030303030303" height="3.0303030303030303" style="fill:#404040;shape-rendering:crispEdges;"/>
<rect x="96.96969696969697" y="9.09090909090909" width="3.0303030303030303" height="3.0303030303030303" style="fill:#404040;shape-rendering:crispEdges;"/>
<rect x="0" y="12.121212121212121" width="3.0303030303030303" height="3.0303030303030303" style="fill:#404040;shape-rendering:crispEdges;"/>
<rect x="6.0606060606060606" y="12.121212121212121" width="3.0303030303030303" height="3.0303030303030303" style="fill:#404040;shape-rendering:crispEdges;"/>
<rect x="9.09090909090909" y="12.121212121212121" width="3.0303030303030303" height="3.0303030303030303" style="fill:#404040;shape-rendering:crispEdges;"/>
<rect x="12.121212121212121" y="12.121212121212121" width="3.0303030303030303" height="3.0303030303030303" style="fill:#404040;shape-rendering:crispEdges;"/>
<rect x="18.18181818181818" y="12.121212121212121" width="3.0303030303030303" height="3.0303030303030303" style="fill:#404040;shape-rendering:crispEdges;"/>
<rect x="33.333333333333336" y="12.121212121212121" width="3.0303030303030303" height="3.0303030303030303" style="fill:#404040;shape-rendering:crispEdges;"/>
<rect x="36.36363636363636" y="12.121212121212121" width="3.0303030303030303" height="3.0303030303030303" style="fill:#404040;shape-rendering:crispEdges;"/>
<rect x="39.39393939393939" y="12.121212121212121" width="3.0303030303030303" height="3.0303030303030303" style="fill:#404040;shape-rendering:crispEdges;"/>
<rect x="42.42424242424242" y="12.121212121212121" width="3.0303030303030303" height="3.0303030303030303" style="fill:#404040;shape-rendering:crispEdges;"/>
<rect x="45.45454545454545" y="12.121212121212121" width="3.0303030303030303" height="3.0303030303030303" style="fill:#404040;shape-rendering:crispEdges;"/>
<rect x="48.484848484848484" y="12.121212121212121" width="3.0303030303030303" height="3.0303030303030303" style="fill:#404040;shape-rendering:crispEdges;"/>
<rect x="54.54545454545455" y="12.121212121212121" width="3.0303030303030303" height="3.0303030303030303" style="fill:#404040;shape-rendering:crispEdges;"/>
<rect x="57.57575757575758" y="12.121212121212121" width="3.0303030303030303" height="3.0303030303030303" style="fill:#404040;shape-rendering:crispEdges;"/>
<rect x="63.63636363636363" y="12.121212121212121" width="3.0303030303030303" height="3.0303030303030303" style="fill:#404040;shape-rendering:crispEdges;"/>
<rect x="69.6969696969697" y="12.121212121212121" width="3.0303030303030303" height="3.0303030303030303" style="fill:#404040;shape-rendering:crispEdges;"/>
<rect x="72.72727272727272" y="12.121212121212121" width="3.0303030303030303" height="3.0303030303030303" style="fill:#404040;shape-rendering:crispEdges;"/>
<rect x="78.78787878787878" y="12.121212121212121" width="3.0303030303030303" height="3.0303030303030303" style="fill:#404040;shape-rendering:crispEdges;"/>
<rect x="84.84848484848484" y="12.121212121212121" width="3.0303030303030303" height="3.0303030303030303" style="fill:#404040;shape-rendering:crispEdges;"/>
<rect x="87.87878787878788" y="12.121212121212121" width="3.0303030303030303" height="3.0303030303030303" style="fill:#404040;shape-rendering:crispEdges;"/>
<rect x="90.9090909090909" y="12.121212121212121" width="3.0303030303030303" height="3.0303030303030303" style="fill:#404040;shape-rendering:crispEdges;"/>
<rect x="96.96969696969697" y="12.121212121212121" width="3.0303030303030303" height="3.0303030303030303" style="fill:#404040;shape-rendering:crispEdges;"/>
<rect x="0" y="15.151515151515152" width="3.0303030303030303" height="3.0303030303030303" style="fill:#404040;shape-rendering:crispEdges;"/>
<rect x="18.18181818181818" y="15.151515151515152" width="3.0303030303030303" height="3.0303030303030303" style="fill:#404040;shape-rendering:crispEdges;"/>
<rect x="24.242424242424242" y="15.151515151515152" width="3.0303030303030303" height="3.0303030303030303" style="fill:#404040;shape-rendering:crispEdges;"/>
<rect x="30.303030303030305" y="15.151515151515152" width="3.0303030303030303" height="3.0303030303030303" style="fill:#404040;shape-rendering:crispEdges;"/>
<rect x="33.333333333333336" y="15.151515151515152" width="3.0303030303030303" height="3.0303030303030303" style="fill:#404040;shape-rendering:crispEdges;"/>
<rect x="36.36363636363636" y="15.151515151515152" width="3.0303030303030303" height="3.0303030303030303" style="fill:#404040;shape-rendering:crispEdges;"/>
<rect x="39.39393939393939" y="15.151515151515152" width="3.0303030303030303" height="3.0303030303030303" style="fill:#404040;shape-rendering:crispEdges;"/>
<rect x="48.484848484848484" y="15.151515151515152" width="3.0303030303030303" height="3.0303030303030303" style="fill:#404040;shape-rendering:crispEdges;"/>
<rect x="54.54545454545455" y="15.151515151515152" width="3.0303030303030303" height="3.0303030303030303" style="fill:#404040;shape-rendering:crispEdges;"/>
<rect x="60.60606060606061" y="15.151515151515152" width="3.0303030303030303" height="3.0303030303030303" style="fill:#404040;shape-rendering:crispEdges;"/>
<rect x="63.63636363636363" y="15.151515151515152" width="3.0303030303030303" height="3.0303030303030303" style="fill:#404040;shape-rendering:crispEdges;"/>
<rect x="66.66666666666667" y="15.151515151515152" width="3.0303030303030303" height="3.0303030303030303" style="fill:#404040;shape-rendering:crispEdges;"/>
<rect x="69.6969696969697" y="15.151515151515152" width="3.0303030303030303" height="3.0303030303030303" style="fill:#404040;shape-rendering:crispEdges;"/>
<rect x="78.78787878787878" y="15.151515151515152" width="3.0303030303030303" height="3.0303030303030303" style="fill:#404040;shape-rendering:crispEdges;"/>
<rect x="96.96969696969697" y="15.151515151515152" width="3.0303030303030303" height="3.0303030303030303" style="fill:#404040;shape-rendering:crispEdges;"/>
<rect x="0" y="18.18181818181818" width="3.0303030303030303" height="3.0303030303030303" style="fill:#404040;shape-rendering:crispEdges;"/>
<rect x="3.0303030303030303" y="18.18181818181818" width="3.0303030303030303" height="3.0303030303030303" style="fill:#404040;shape-rendering:crispEdges;"/>
<rect x="6.0606060606060606" y="18.18181818181818" width="3.0303030303030303" height="3.0303030303030303" style="fill:#404040;shape-rendering:crispEdges;"/>
<rect x="9.09090909090909" y="18.18181818181818" width="3.0303030303030303" height="3.0303030303030303" style="fill:#404040;shape-rendering:crispEdges;"/>
<rect x="12.121212121212121" y="18.18181818181818" width="3.0303030303030303" height="3.0303030303030303" style="fill:#404040;shape-rendering:crispEdges;"/>
<rect x="15.151515151515152" y="18.18181818181818" width="3.0303030303030303" height="3.0303030303030303" style="fill:#404040;shape-rendering:crispEdges;"/>
<rect x="18.18181818181818" y="18.18181818181818" width="3.0303030303030303" height="3.0303030303030303" style="fill:#404040;shape-rendering:crispEdges;"/>
<rect x="24.242424242424242" y="18.18181818181818" width="3.0303030303030303" height="3.0303030303030303" style="fill:#404040;shape-rendering:crispEdges;"/>
<rect x="30.303030303030305" y="18.18181818181818" width="3.0303030303030303" height="3.0303030303030303" style="fill:#404040;shape-rendering:crispEdges;"/>
<rect x="36.36363636363636" y="18.18181818181818" width="3.0303030303030303" height="3.0303030303030303" style="fill:#404040;shape-rendering:crispEdges;"/>
<rect x="42.42424242424242" y="18.18181818181818" width="3.0303030303030303" height="3.0303030303030303" style="fill:#404040;shape-rendering:crispEdges;"/>
<rect x="48.484848484848484" y="18.18181818181818" width="3.0303030303030303" height="3.0303030303030303" style="fill:#404040;shape-rendering:crispEdges;"/>
<rect x="54.54545454545455" y="18.18181818181818" width="3.0303030303030303" height="3.0303030303030303" style="fill:#404040;shape-rendering:crispEdges;"/>
<rect x="60.60606060606061" y="18.18181818181818" width="3.0303030303030303" height="3.0303030303030303" style="fill:#404040;shape-rendering:crispEdges;"/>
<rect x="66.66666666666667" y="18.18181818181818" width="3.0303030303030303" height="3.0303030303030303" style="fill:#404040;shape-rendering:crispEdges;"/>
<rect x="72.72727272727272" y="18.18181818181818" width="3.0303030303030303" height="3.0303030303030303" style="fill:#404040;shape-rendering:crispEdges;"/>
<rect x="78.78787878787878" y="18.18181818181818" width="3.0303030303030303" height="3.0303030303030303" style="fill:#404040;shape-rendering:crispEdges;"/>
<rect x="81.81818181818181" y="18.18181818181818" width="3.0303030303030303" height="3.0303030303030303" style="fill:#404040;shape-rendering:crispEdges;"/>
<rect x="84.84848484848484" y="18.18181818181818" width="3.0303030303030303" height="3.0303030303030303" style="fill:#404040;shape-rendering:crispEdges;"/>
<rect x="87.87878787878788" y="18.18181818181818" width="3.0303030303030303" height="3.0303030303030303" style="fill:#404040;shape-rendering:crispEdges;"/>
<rect x="90.9090909090909" y="18.18181818181818" width="3.0303030303030303" height="3.0303030303030303" style="fill:#404040;shape-rendering:crispEdges;"/>
<rect x="93.93939393939394" y="18.18181818181818" width="3.0303030303030303" height="3.0303030303030303" style="fill:#404040;shape-rendering:crispEdges;"/>
<rect x="96.96969696969697" y="18.18181818181818" width="3.0303030303030303" height="3.0303030303030303" style="fill:#404040;shape-rendering:crispEdges;"/>
<rect x="24.242424242424242" y="21.21212121212121" width="3.0303030303030303" height="3.0303030303030303" style="fill:#404040;shape-rendering:crispEdges;"/>
<rect x="36.36363636363636" y="21.21212121212121" width="3.0303030303030303" height="3.0303030303030303" style="fill:#404040;shape-rendering:crispEdges;"/>
<rect x="42.42424242424242" y="21.21212121212121" width="3.0303030303030303" height="3.0303030303030303" style="fill:#404040;shape-rendering:crispEdges;"/>
<rect x="45.45454545454545" y="21.21212121212121" width="3.0303030303030303" height="3.0303030303030303" style="fill:#404040;shape-rendering:crispEdges;"/>
<rect x="54.54545454545455" y="21.21212121212121" width="3.0303030303030303" height="3.0303030303030303" style="fill:#404040;shape-rendering:crispEdges;"/>
<rect x="57.57575757575758" y="21.21212121212121" width="3.0303030303030303" height="3.0303030303030303" style="fill:#404040;shape-rendering:crispEdges;"/>
<rect x="60.60606060606061" y="21.21212121212121" width="3.0303030303030303" height="3.0303030303030303" style="fill:#404040;shape-rendering:crispEdges;"/>
<rect x="63.63636363636363" y="21.21212121212121" width="3.0303030303030303" height="3.0303030303030303" style="fill:#404040;shape-rendering:crispEdges;"/>
<rect x="66.66666666666667" y="21.21212121212121" width="3.0303030303030303" height="3.0303030303030303" style="fill:#404040;shape-rendering:crispEdges;"/>
<rect x="0" y="24.242424242424242" width="3.0303030303030303" height="3.0303030303030303" style="fill:#404040;shape-rendering:crispEdges;"/>
<rect x="3.0303030303030303" y="24.242424242424242" width="3.0303030303030303" height="3.0303030303030303" style="fill:#404040;shape-rendering:crispEdges;"/>
<rect x="9.09090909090909" y="24.242424242424242" width="3.0303030303030303" height="3.0303030303030303" style="fill:#404040;shape-rendering:crispEdges;"/>
<rect x="18.18181818181818" y="24.242424242424242" width="3.0303030303030303" height="3.0303030303030303" style="fill:#404040;shape-rendering:crispEdges;"/>
<rect x="21.21212121212121" y="24.242424242424242" width="3.0303030303030303" height="3.0303030303030303" style="fill:#404040;shape-rendering:crispEdges;"/>
<rect x="27.272727272727273" y="24.242424242424242" width="3.0303030303030303" height="3.0303030303030303" style="fill:#404040;shape-rendering:crispEdges;"/>
<rect x="36.36363636363636" y="24.242424242424242" width="3.0303030303030303" height="3.0303030303030303" style="fill:#404040;shape-rendering:crispEdges;"/>
<rect x="45.45454545454545" y="24.242424242424242" width="3.0303030303030303" height="3.0303030303030303" style="fill:#404040;shape-rendering:crispEdges;"/>
<rect x="48.484848484848484" y="24.242424242424242" width="3.0303030303030303" height="3.0303030303030303" style="fill:#404040;shape-rendering:crispEdges;"/>
<rect x="57.57575757575758" y="24.242424242424242" width="3.0303030303030303" height="3.0303030303030303" style="fill:#404040;shape-rendering:crispEdges;"/>
<rect x="60.60606060606061" y="24.242424242424242" width="3.0303030303030303" height="3.0303030303030303" style="fill:#404040;shape-rendering:crispEdges;"/>
<rect x="63.63636363636363" y="24.242424242424242" width="3.0303030303030303" height="3.0303030303030303" style="fill:#404040;shape-rendering:crispEdges;"/>
<rect x="66.66666666666667" y="24.242424242424242" width="3.0303030303030303" height="3.0303030303030303" style="fill:#404040;shape-rendering:crispEdges;"/>
<rect x="69.6969696969697" y="24.242424242424242" width="3.0303030303030303" height="3.0303030303030303" style="fill:#404040;shape-rendering:crispEdges;"/>
<rect x="75.75757575757575" y="24.242424242424242" width="3.0303030303030303" height="3.0303030303030303" style="fill:#404040;shape-rendering:crispEdges;"/>
<rect x="78.78787878787878" y="24.242424242424242" width="3.0303030303030303" height="3.0303030303030303" style="fill:#404040;shape-rendering:crispEdges;"/>
<rect x="81.81818181818181" y="24.242424242424242" width="3.0303030303030303" height="3.0303030303030303" style="fill:#404040;shape-rendering:crispEdges;"/>
<rect x="87.87878787878788" y="24.242424242424242" width="3.0303030303030303" height="3.0303030303030303" style="fill:#404040;shape-rendering:crispEdges;"/>
<rect x="90.9090909090909" y="24.242424242424242" width="3.0303030303030303" height="3.0303030303030303" style="fill:#404040;shape-rendering:crispEdges;"/>
<rect x="96.96969696969697" y="24.242424242424242" width="3.0303030303030303" height="3.0303030303030303" style="fill:#404040;shape-rendering:crispEdges;"/>
<rect x="3.0303030303030303" y="27.272727272727273" width="3.0303030303030303" height="3.0303030303030303" style="fill:#404040;shape-rendering:crispEdges;"/>
<rect x="6.0606060606060606" y="27.272727272727273" width="3.0303030303030303" height="3.0303030303030303" style="fill:#404040;shape-rendering:crispEdges;"/>
<rect x="9.09090909090909" y="27.272727272727273" width="3.0303030303030303" height="3.0303030303030303" style="fill:#404040;shape-rendering:crispEdges;"/>
<rect x="15.151515151515152" y="27.272727272727273" width="3.0303030303030303" height="3.0303030303030303" style="fill:#404040;shape-rendering:crispEdges;"/>
<rect x="21.21212121212121" y="27.272727272727273" width="3.0303030303030303" height="3.0303030303030303" style="fill:#404040;shape-rendering:crispEdges;"/>
<rect x="24.242424242424242" y="27.272727272727273" width="3.0303030303030303" height="3.0303030303030303" style="fill:#404040;shape-rendering:crispEdges;"/>
<rect x="30.303030303030305" y="27.272727272727273" width="3.0303030303030303" height="3.0303030303030303" style="fill:#404040;shape-rendering:crispEdges;"/>
<rect x="36.36363636363636" y="27.272727272727273" width="3.0303030303030303" height="3.0303030303030303" style="fill:#404040;shape-rendering:crispEdges;"/>
<rect x="39.39393939393939" y="27.272727272727273" width="3.0303030303030303" height="3.0303030303030303" style="fill:#404040;shape-rendering:crispEdges;"/>
<rect x="42.42424242424242" y="27.272727272727273" width="3.0303030303030303" height="3.0303030303030303" style="fill:#404040;shape-rendering:crispEdges;"/>
<rect x="63.63636363636363" y="27.272727272727273" width="3.0303030303030303" height="3.0303030303030303" style="fill:#404040;shape-rendering:crispEdges;"/>
<rect x="69.6969696969697" y="27.272727272727273" width="3.0303030303030303" height="3.0303030303030303" style="fill:#404040;shape-rendering:crispEdges;"/>
<rect x="75.75757575757575" y="27.272727272727273" width="3.0303030303030303" height="3.0303030303030303" style="fill:#404040;shape-rendering:crispEdges;"/>
<rect x="81.81818181818181" y="27.272727272727273" width="3.0303030303030303" height="3.0303030303030303" style="fill:#404040;shape-rendering:crispEdges;"/>
<rect x="90.9090909090909" y="27.272727272727273" width="3.0303030303030303" height="3.0303030303030303" style="fill:#404040;shape-rendering:crispEdges;"/>
<rect x="93.93939393939394" y="27.272727272727273" width="3.0303030303030303" height="3.0303030303030303" style="fill:#404040;shape-rendering:crispEdges;"/>
<rect x="96.96969696969697" y="27.272727272727273" width="3.0303030303030303" height="3.0303030303030303" style="fill:#404040;shape-rendering:crispEdges;"/>
<rect x="6.0606060606060606" y="30.303030303030305" width="3.0303030303030303" height="3.0303030303030303" style="fill:#404040;shape-rendering:crispEdges;"/>
<rect x="9.09090909090909" y="30.303030303030305" width="3.0303030303030303" height="3.0303030303030303" style="fill:#404040;shape-rendering:crispEdges;"/>
<rect x="15.151515151515152" y="30.303030303030305" width="3.0303030303030303" height="3.0303030303030303" style="fill:#404040;shape-rendering:crispEdges;"/>
<rect x="18.18181818181818" y="30.303030303030305" width="3.0303030303030303" height="3.0303030303030303" style="fill:#404040;shape-rendering:crispEdges;"/>
<rect x="24.242424242424242" y="30.303030303030305" width="3.0303030303030303" height="3.0303030303030303" style="fill:#404040;shape-rendering:crispEdges;"/>
<rect x="30.303030303030305" y="30.303030303030305" width="3.0303030303030303" height="3.0303030303030303" style="fill:#404040;shape-rendering:crispEdges;"/>
<rect x="33.333333333333336" y="30.303030303030305" width="3.0303030303030303" height="3.0303030303030303" style="fill:#404040;shape-rendering:crispEdges;"/>
<rect x="42.42424242424242" y="30.303030303030305" width="3.0303030303030303" height="3.0303030303030303" style="fill:#404040;shape-rendering:crispEdges;"/>
<rect x="51.515151515151516" y="30.303030303030305" width="3.0303030303030303" height="3.0303030303030303" style="fill:#404040;shape-rendering:crispEdges;"/>
<rect x="54.54545454545455" y="30.303030303030305" width="3.0303030303030303" height="3.0303030303030303" style="fill:#404040;shape-rendering:crispEdges;"/>
<rect x="57.57575757575758" y="30.303030303030305" width="3.0303030303030303" height="3.0303030303030303" style="fill:#404040;shape-rendering:crispEdges;"/>
<rect x="60.60606060606061" y="30.303030303030305" width="3.0303030303030303" height="3.0303030303030303" style="fill:#404040;shape-rendering:crispEdges;"/>
<rect x="66.66666666666667" y="30.303030303030305" width="3.0303030303030303" height="3.0303030303030303" style="fill:#404040;shape-rendering:crispEdges;"/>
<rect x="69.6969696969697" y="30.303030303030305" width="3.0303030303030303" height="3.0303030303030303" style="fill:#404040;shape-rendering:crispEdges;"/>
<rect x="72.72727272727272" y="30.303030303030305" width="3.0303030303030303" height="3.0303030303030303" style="fill:#404040;shape-rendering:crispEdges;"/>
<rect x="78.78787878787878" y="30.303030303030305" width="3.0303030303030303" height="3.0303030303030303" style="fill:#404040;shape-rendering:crispEdges;"/>
<rect x="81.81818181818181" y="30.303030303030305" width="3.0303030303030303" height="3.0303030303030303" style="fill:#404040;shape-rendering:crispEdges;"/>
<rect x="3.0303030303030303" y="33.333333333333336" width="3.0303030303030303" height="3.0303030303030303" style="fill:#404040;shape-rendering:crispEdges;"/>
<rect x="6.0606060606060606" y="33.333333333333336" width="3.0303030303030303" height="3.0303030303030303" style="fill:#404040;shape-rendering:crispEdges;"/>
<rect x="9.09090909090909" y="33.333333333333336" width="3.0303030303030303" height="3.0303030303030303" style="fill:#404040;shape-rendering:crispEdges;"/>
<rect x="15.151515151515152" y="33.333333333333336" width="3.0303030303030303" height="3.0303030303030303" style="fill:#404040;shape-rendering:crispEdges;"/>
<rect x="27.272727272727273" y="33.333333333333336" width="3.0303030303030303" height="3.0303030303030303" style="fill:#404040;shape-rendering:crispEdges;"/>
<rect x="33.333333333333336" y="33.333333333333336" width="3.0303030303030303" height="3.0303030303030303" style="fill:#404040;shape-rendering:crispEdges;"/>
<rect x="39.39393939393939" y="33.333333333333336" width="3.0303030303030303" height="3.0303030303030303" style="fill:#404040;shape-rendering:crispEdges;"/>
<rect x="45.45454545454545" y="33.333333333333336" width="3.0303030303030303" height="3.0303030303030303" style="fill:#404040;shape-rendering:crispEdges;"/>
<rect x="48.484848484848484" y="33.333333333333336" width="3.0303030303030303" height="3.0303030303030303" style="fill:#404040;shape-rendering:crispEdges;"/>
<rect x="54.54545454545455" y="33.333333333333336" width="3.0303030303030303" height="3.0303030303030303" style="fill:#404040;shape-rendering:crispEdges;"/>
<rect x="72.72727272727272" y="33.333333333333336" width="3.0303030303030303" height="3.0303030303030303" style="fill:#404040;shape-rendering:crispEdges;"/>
<rect x="75.75757575757575" y="33.333333333333336" width="3.0303030303030303" height="3.0303030303030303" style="fill:#404040;shape-rendering:crispEdges;"/>
<rect x="78.78787878787878" y="33.333333333333336" width="3.0303030303030303" height="3.0303030303030303" style="fill:#404040;shape-rendering:crispEdges;"/>
<rect x="81.81818181818181" y="33.333333333333336" width="3.0303030303030303" height="3.0303030303030303" style="fill:#404040;shape-rendering:crispEdges;"/>
<rect x="90.9090909090909" y="33.333333333333336" width="3.0303030303030303" height="3.0303030303030303" style="fill:#404040;shape-rendering:crispEdges;"/>
<rect x="93.93939393939394" y="33.333333333333336" width="3.0303030303030303" height="3.0303030303030303" style="fill:#404040;shape-rendering:crispEdges;"/>
<rect x="96.96969696969697" y="33.333333333333336" width="3.0303030303030303" height="3.0303030303030303" style="fill:#404040;shape-rendering:crispEdges;"/>
<rect x="6.0606060606060606" y="36.36363636363636" width="3.0303030303030303" height="3.0303030303030303" style="fill:#404040;shape-rendering:crispEdges;"/>
<rect x="9.09090909090909" y="36.36363636363636" width="3.0303030303030303" height="3.0303030303030303" style="fill:#404040;shape-rendering:crispEdges;"/>
<rect x="15.151515151515152" y="36.36363636363636" width="3.0303030303030303" height="3.0303030303030303" style="fill:#404040;shape-rendering:crispEdges;"/>
<rect x="18.18181818181818" y="36.36363636363636" width="3.0303030303030303" height="3.0303030303030303" style="fill:#404040;shape-rendering:crispEdges;"/>
<rect x="21.21212121212121" y="36.36363636363636" width="3.0303030303030303" height="3.0303030303030303" style="fill:#404040;shape-rendering:crispEdges;"/>
<rect x="27.272727272727273" y="36.36363636363636" width="3.0303030303030303" height="3.0303030303030303" style="fill:#404040;shape-rendering:crispEdges;"/>
<rect x="30.303030303030305" y="36.36363636363636" width="3.0303030303030303" height="3.0303030303030303" style="fill:#404040;shape-rendering:crispEdges;"/>
<rect x="33.333333333333336" y="36.36363636363636" width="3.0303030303030303" height="3.0303030303030303" style="fill:#404040;shape-rendering:crispEdges;"/>
<rect x="42.42424242424242" y="36.36363636363636" width="3.0303030303030303" height="3.0303030303030303" style="fill:#404040;shape-rendering:crispEdges;"/>
<rect x="54.54545454545455" y="36.36363636363636" width="3.0303030303030303" height="3.0303030303030303" style="fill:#404040;shape-rendering:crispEdges;"/>
<rect x="63.63636363636363" y="36.36363636363636" width="3.0303030303030303" height="3.0303030303030303" style="fill:#404040;shape-rendering:crispEdges;"/>
<rect x="66.66666666666667" y="36.36363636363636" width="3.0303030303030303" height="3.0303030303030303" style="fill:#404040;shape-rendering:crispEdges;"/>
<rect x="72.72727272727272" y="36.36363636363636" width="3.0303030303030303" height="3.0303030303030303" style="fill:#404040;shape-rendering:crispEdges;"/>
<rect x="84.84848484848484" y="36.36363636363636" width="3.0303030303030303" height="3.0303030303030303" style="fill:#404040;shape-rendering:crispEdges;"/>
<rect x="90.9090909090909" y="36.36363636363636" width="3.0303030303030303" height="3.0303030303030303" style="fill:#404040;shape-rendering:crispEdges;"/>
<rect x="93.93939393939394" y="36.36363636363636" width="3.0303030303030303" height="3.0303030303030303" style="fill:#404040;shape-rendering:crispEdges;"/>
<rect x="96.96969696969697" y="36.36363636363636" width="3.0303030303030303" height="3.0303030303030303" style="fill:#404040;shape-rendering:crispEdges;"/>
<rect x="0" y="39.39393939393939" width="3.0303030303030303" height="3.0303030303030303" style="fill:#404040;shape-rendering:crispEdges;"/>
<rect x="3.0303030303030303" y="39.39393939393939" width="3.0303030303030303" height="3.0303030303030303" style="fill:#404040;shape-rendering:crispEdges;"/>
<rect x="33.333333333333336" y="39.39393939393939" width="3.0303030303030303" height="3.0303030303030303" style="fill:#404040;shape-rendering:crispEdges;"/>
<rect x="39.39393939393939" y="39.39393939393939" width="3.0303030303030303" height="3.0303030303030303" style="fill:#404040;shape-rendering:crispEdges;"/>
<rect x="45.45454545454545" y="39.39393939393939" width="3.0303030303030303" height="3.0303030303030303" style="fill:#404040;shape-rendering:crispEdges;"/>
<rect x="48.484848484848484" y="39.39393939393939" width="3.0303030303030303" height="3.0303030303030303" style="fill:#404040;shape-rendering:crispEdges;"/>
<rect x="51.515151515151516" y="39.39393939393939" width="3.0303030303030303" height="3.0303030303030303" style="fill:#404040;shape-rendering:crispEdges;"/>
<rect x="63.63636363636363" y="39.39393939393939" width="3.0303030303030303" height="3.0303030303030303" style="fill:#404040;shape-rendering:crispEdges;"/>
<rect x="66.66666666666667" y="39.39393939393939" width="3.0303030303030303" height="3.0303030303030303" style="fill:#404040;shape-rendering:crispEdges;"/>
<rect x="69.6969696969697" y="39.39393939393939" width="3.0303030303030303" height="3.0303030303030303" style="fill:#404040;shape-rendering:crispEdges;"/>
<rect x="78.78787878787878" y="39.39393939393939" width="3.0303030303030303" height="3.0303030303030303" style="fill:#404040;shape-rendering:crispEdges;"/>
<rect x="84.84848484848484" y="39.39393939393939" width="3.0303030303030303" height="3.0303030303030303" style="fill:#404040;shape-rendering:crispEdges;"/>
<rect x="93.93939393939394" y="39.39393939393939" width="3.0303030303030303" height="3.0303030303030303" style="fill:#404040;shape-rendering:crispEdges;"/>
<rect x="96.96969696969697" y="39.39393939393939" width="3.0303030303030303" height="3.0303030303030303" style="fill:#404040;shape-rendering:crispEdges;"/>
<rect x="0" y="42.42424242424242" width="3.0303030303030303" height="3.0303030303030303" style="fill:#404040;shape-rendering:crispEdges;"/>
<rect x="9.09090909090909" y="42.42424242424242" width="3.0303030303030303" height="3.0303030303030303" style="fill:#404040;shape-rendering:crispEdges;"/>
<rect x="12.121212121212121" y="42.42424242424242" width="3.0303030303030303" height="3.0303030303030303" style="fill:#404040;shape-rendering:crispEdges;"/>
<rect x="18.18181818181818" y="42.42424242424242" width="3.0303030303030303" height="3.0303030303030303" style="fill:#404040;shape-rendering:crispEdges;"/>
<rect x="27.272727272727273" y="42.42424242424242" width="3.0303030303030303" height="3.0303030303030303" style="fill:#404040;shape-rendering:crispEdges;"/>
<rect x="30.303030303030305" y="42.42424242424242" width="3.0303030303030303" height="3.0303030303030303" style="fill:#404040;shape-rendering:crispEdges;"/>
<rect x="33.333333333333336" y="42.42424242424242" width="3.0303030303030303" height="3.0303030303030303" style="fill:#404040;shape-rendering:crispEdges;"/>
<rect x="51.515151515151516" y="42.42424242424242" width="3.0303030303030303" height="3.0303030303030303" style="fill:#404040;shape-rendering:crispEdges;"/>
<rect x="60.60606060606061" y="42.42424242424242" width="3.0303030303030303" height="3.0303030303030303" style="fill:#404040;shape-rendering:crispEdges;"/>
<rect x="72.72727272727272" y="42.42424242424242" width="3.0303030303030303" height="3.0303030303030303" style="fill:#404040;shape-rendering:crispEdges;"/>
<rect x="87.87878787878788" y="42.42424242424242" width="3.0303030303030303" height="3.0303030303030303" style="fill:#404040;shape-rendering:crispEdges;"/>
<rect x="90.9090909090909" y="42.42424242424242" width="3.0303030303030303" height="3.0303030303030303" style="fill:#404040;shape-rendering:crispEdges;"/>
<rect x="6.0606060606060606" y="45.45454545454545" width="3.0303030303030303" height="3.0303030303030303" style="fill:#404040;shape-rendering:crispEdges;"/>
<rect x="9.09090909090909" y="45.45454545454545" width="3.0303030303030303" height="3.0303030303030303" style="fill:#404040;shape-rendering:crispEdges;"/>
<rect x="36.36363636363636" y="45.45454545454545" width="3.0303030303030303" height="3.0303030303030303" style="fill:#404040;shape-rendering:crispEdges;"/>
<rect x="42.42424242424242" y="45.45454545454545" width="3.0303030303030303" height="3.0303030303030303" style="fill:#404040;shape-rendering:crispEdges;"/>
<rect x="48.484848484848484" y="45.45454545454545" width="3.0303030303030303" height="3.0303030303030303" style="fill:#404040;shape-rendering:crispEdges;"/>
<rect x="54.54545454545455" y="45.45454545454545" width="3.0303030303030303" height="3.0303030303030303" style="fill:#404040;shape-rendering:crispEdges;"/>
<rect x="63.63636363636363" y="45.45454545454545" width="3.0303030303030303" height="3.0303030303030303" style="fill:#404040;shape-rendering:crispEdges;"/>
<rect x="72.72727272727272" y="45.45454545454545" width="3.0303030303030303" height="3.0303030303030303" style="fill:#404040;shape-rendering:crispEdges;"/>
<rect x="75.75757575757575" y="45.45454545454545" width="3.0303030303030303" height="3.0303030303030303" style="fill:#404040;shape-rendering:crispEdges;"/>
<rect x="93.93939393939394" y="45.45454545454545" width="3.0303030303030303" height="3.0303030303030303" style="fill:#404040;shape-rendering:crispEdges;"/>
<rect x="96.96969696969697" y="45.45454545454545" width="3.0303030303030303" height="3.0303030303030303" style="fill:#404040;shape-rendering:crispEdges;"/>
<rect x="6.0606060606060606" y="48.484848484848484" width="3.0303030303030303" height="3.0303030303030303" style="fill:#404040;shape-rendering:crispEdges;"/>
<rect x="9.09090909090909" y="48.484848484848484" width="3.0303030303030303" height="3.0303030303030303" style="fill:#404040;shape-rendering:crispEdges;"/>
<rect x="18.18181818181818" y="48.484848484848484" width="3.0303030303030303" height="3.0303030303030303" style="fill:#404040;shape-rendering:crispEdges;"/>
<rect x="24.242424242424242" y="48.484848484848484" width="3.0303030303030303" height="3.0303030303030303" style="fill:#404040;shape-rendering:crispEdges;"/>
<rect x="27.272727272727273" y="48.484848484848484" width="3.0303030303030303" height="3.0303030303030303" style="fill:#404040;shape-rendering:crispEdges;"/>
<rect x="39.39393939393939" y="48.484848484848484" width="3.0303030303030303" height="3.0303030303030303" style="fill:#404040;shape-rendering:crispEdges;"/>
<rect x="42.42424242424242" y="48.484848484848484" width="3.0303030303030303" height="3.0303030303030303" style="fill:#404040;shape-rendering:crispEdges;"/>
<rect x="45.45454545454545" y="48.484848484848484" width="3.0303030303030303" height="3.0303030303030303" style="fill:#404040;shape-rendering:crispEdges;"/>
<rect x="57.57575757575758" y="48.484848484848484" width="3.0303030303030303" height="3.0303030303030303" style="fill:#404040;shape-rendering:crispEdges;"/>
<rect x="66.66666666666667" y="48.484848484848484" width="3.0303030303030303" height="3.0303030303030303" style="fill:#404040;shape-rendering:crispEdges;"/>
<rect x="69.6969696969697" y="48.484848484848484" width="3.0303030303030303" height="3.0303030303030303" style="fill:#404040;shape-rendering:crispEdges;"/>
<rect x="72.72727272727272" y="48.484848484848484" width="3.0303030303030303" height="3.0303030303030303" style="fill:#404040;shape-rendering:crispEdges;"/>
<rect x="78.78787878787878" y="48.484848484848484" width="3.0303030303030303" height="3.0303030303030303" style="fill:#404040;shape-rendering:crispEdges;"/>
<rect x="81.81818181818181" y="48.484848484848484" width="3.0303030303030303" height="3.0303030303030303" style="fill:#404040;shape-rendering:crispEdges;"/>
<rect x="93.93939393939394" y="48.484848484848484" width="3.0303030303030303" height="3.0303030303030303" style="fill:#404040;shape-rendering:crispEdges;"/>
<rect x="0" y="51.515151515151516" width="3.0303030303030303" height="3.0303030303030303" style="fill:#404040;shape-rendering:crispEdges;"/>
<rect x="6.0606060606060606" y="51.515151515151516" width="3.0303030303030303" height="3.0303030303030303" style="fill:#404040;shape-rendering:crispEdges;"/>
<rect x="12.121212121212121" y="51.515151515151516" width="3.0303030303030303" height="3.0303030303030303" style="fill:#404040;shape-rendering:crispEdges;"/>
<rect x="21.21212121212121" y="51.515151515151516" width="3.0303030303030303" height="3.0303030303030303" style="fill:#404040;shape-rendering:crispEdges;"/>
<rect x="24.242424242424242" y="51.515151515151516" width="3.0303030303030303" height="3.0303030303030303" style="fill:#404040;shape-rendering:crispEdges;"/>
<rect x="30.303030303030305" y="51.515151515151516" width="3.0303030303030303" height="3.0303030303030303" style="fill:#404040;shape-rendering:crispEdges;"/>
<rect x="39.39393939393939" y="51.515151515151516" width="3.0303030303030303" height="3.0303030303030303" style="fill:#404040;shape-rendering:crispEdges;"/>
<rect x="51.515151515151516" y="51.515151515151516" width="3.0303030303030303" height="3.0303030303030303" style="fill:#404040;shape-rendering:crispEdges;"/>
<rect x="54.54545454545455" y="51.515151515151516" width="3.0303030303030303" height="3.0303030303030303" style="fill:#404040;shape-rendering:crispEdges;"/>
<rect x="66.66666666666667" y="51.515151515151516" width="3.0303030303030303" height="3.0303030303030303" style="fill:#404040;shape-rendering:crispEdges;"/>
<rect x="72.72727272727272" y="51.515151515151516" width="3.0303030303030303" height="3.0303030303030303" style="fill:#404040;shape-rendering:crispEdges;"/>
<rect x="75.75757575757575" y="51.515151515151516" width="3.0303030303030303" height="3.0303030303030303" style="fill:#404040;shape-rendering:crispEdges;"/>
<rect x="84.84848484848484" y="51.515151515151516" width="3.0303030303030303" height="3.0303030303030303" style="fill:#404040;shape-rendering:crispEdges;"/>
<rect x="90.9090909090909" y="51.515151515151516" width="3.0303030303030303" height="3.0303030303030303" style="fill:#404040;shape-rendering:crispEdges;"/>
<rect x="93.93939393939394" y="51.515151515151516" width="3.0303030303030303" height="3.0303030303030303" style="fill:#404040;shape-rendering:crispEdges;"/>
<rect x="96.96969696969697" y="51.515151515151516" width="3.0303030303030303" height="3.0303030303030303" style="fill:#404040;shape-rendering:crispEdges;"/>
<rect x="3.0303030303030303" y="54.54545454545455" width="3.0303030303030303" height="3.0303030303030303" style="fill:#404040;shape-rendering:crispEdges;"/>
<rect x="18.18181818181818" y="54.54545454545455" width="3.0303030303030303" height="3.0303030303030303" style="fill:#404040;shape-rendering:crispEdges;"/>
<rect x="24.242424242424242" y="54.54545454545455" width="3.0303030303030303" height="3.0303030303030303" style="fill:#404040;shape-rendering:crispEdges;"/>
<rect x="27.272727272727273" y="54.54545454545455" width="3.0303030303030303" height="3.0303030303030303" style="fill:#404040;shape-rendering:crispEdges;"/>
<rect x="33.333333333333336" y="54.54545454545455" width="3.0303030303030303" height="3.0303030303030303" style="fill:#404040;shape-rendering:crispEdges;"/>
<rect x="36.36363636363636" y="54.54545454545455" width="3.0303030303030303" height="3.0303030303030303" style="fill:#404040;shape-rendering:crispEdges;"/>
<rect x="39.39393939393939" y="54.54545454545455" width="3.0303030303030303" height="3.0303030303030303" style="fill:#404040;shape-rendering:crispEdges;"/>
<rect x="51.515151515151516" y="54.54545454545455" width="3.0303030303030303" height="3.0303030303030303" style="fill:#404040;shape-rendering:crispEdges;"/>
<rect x="60.60606060606061" y="54.54545454545455" width="3.0303030303030303" height="3.0303030303030303" style="fill:#404040;shape-rendering:crispEdges;"/>
<rect x="63.63636363636363" y="54.54545454545455" width="3.0303030303030303" height="3.0303030303030303" style="fill:#404040;shape-rendering:crispEdges;"/>
<rect x="72.72727272727272" y="54.54545454545455" width="3.0303030303030303" height="3.0303030303030303" style="fill:#404040;shape-rendering:crispEdges;"/>
<rect x="75.75757575757575" y="54.54545454545455" width="3.0303030303030303" height="3.0303030303030303" style="fill:#404040;shape-rendering:crispEdges;"/>
<rect x="87.87878787878788" y="54.54545454545455" width="3.0303030303030303" height="3.0303030303030303" style="fill:#404040;shape-rendering:crispEdges;"/>
<rect x="90.9090909090909" y="54.54545454545455" width="3.0303030303030303" height="3.0303030303030303" style="fill:#404040;shape-rendering:crispEdges;"/>
<rect x="0" y="57.57575757575758" width="3.0303030303030303" height="3.0303030303030303" style="fill:#404040;shape-rendering:crispEdges;"/>
<rect x="6.0606060606060606" y="57.57575757575758" width="3.0303030303030303" height="3.0303030303030303" style="fill:#404040;shape-rendering:crispEdges;"/>
<rect x="15.151515151515152" y="57.57575757575758" width="3.0303030303030303" height="3.0303030303030303" style="fill:#404040;shape-rendering:crispEdges;"/>
<rect x="24.242424242424242" y="57.57575757575758" width="3.0303030303030303" height="3.0303030303030303" style="fill:#404040;shape-rendering:crispEdges;"/>
<rect x="27.272727272727273" y="57.57575757575758" width="3.0303030303030303" height="3.0303030303030303" style="fill:#404040;shape-rendering:crispEdges;"/>
<rect x="33.333333333333336" y="57.57575757575758" width="3.0303030303030303" height="3.0303030303030303" style="fill:#404040;shape-rendering:crispEdges;"/>
<rect x="45.45454545454545" y="57.57575757575758" width="3.0303030303030303" height="3.0303030303030303" style="fill:#404040;shape-rendering:crispEdges;"/>
<rect x="48.484848484848484" y="57.57575757575758" width="3.0303030303030303" height="3.0303030303030303" style="fill:#404040;shape-rendering:crispEdges;"/>
<rect x="60.60606060606061" y="57.57575757575758" width="3.0303030303030303" height="3.0303030303030303" style="fill:#404040;shape-rendering:crispEdges;"/>
<rect x="69.6969696969697" y="57.57575757575758" width="3.0303030303030303" height="3.0303030303030303" style="fill:#404040;shape-rendering:crispEdges;"/>
<rect x="75.75757575757575" y="57.57575757575758" width="3.0303030303030303" height="3.0303030303030303" style="fill:#404040;shape-rendering:crispEdges;"/>
<rect x="78.78787878787878" y="57.57575757575758" width="3.0303030303030303" height="3.0303030303030303" style="fill:#404040;shape-rendering:crispEdges;"/>
<rect x="84.84848484848484" y="57.57575757575758" width="3.0303030303030303" height="3.0303030303030303" style="fill:#404040;shape-rendering:crispEdges;"/>
<rect x="87.87878787878788" y="57.57575757575758" width="3.0303030303030303" height="3.0303030303030303" style="fill:#404040;shape-rendering:crispEdges;"/>
<rect x="90.9090909090909" y="57.57575757575758" width="3.0303030303030303" height="3.0303030303030303" style="fill:#404040;shape-rendering:crispEdges;"/>
<rect x="93.93939393939394" y="57.57575757575758" width="3.0303030303030303" height="3.0303030303030303" style="fill:#404040;shape-rendering:crispEdges;"/>
<rect x="9.09090909090909" y="60.60606060606061" width="3.0303030303030303" height="3.0303030303030303" style="fill:#404040;shape-rendering:crispEdges;"/>
<rect x="12.121212121212121" y="60.60606060606061" width="3.0303030303030303" height="3.0303030303030303" style="fill:#404040;shape-rendering:crispEdges;"/>
<rect x="15.151515151515152" y="60.60606060606061" width="3.0303030303030303" height="3.0303030303030303" style="fill:#404040;shape-rendering:crispEdges;"/>
<rect x="18.18181818181818" y="60.60606060606061" width="3.0303030303030303" height="3.0303030303030303" style="fill:#404040;shape-rendering:crispEdges;"/>
<rect x="21.21212121212121" y="60.60606060606061" width="3.0303030303030303" height="3.0303030303030303" style="fill:#404040;shape-rendering:crispEdges;"/>
<rect x="27.272727272727273" y="60.60606060606061" width="3.0303030303030303" height="3.0303030303030303" style="fill:#404040;shape-rendering:crispEdges;"/>
<rect x="33.333333333333336" y="60.60606060606061" width="3.0303030303030303" height="3.0303030303030303" style="fill:#404040;shape-rendering:crispEdges;"/>
<rect x="45.45454545454545" y="60.60606060606061" width="3.0303030303030303" height="3.0303030303030303" style="fill:#404040;shape-rendering:crispEdges;"/>
<rect x="54.54545454545455" y="60.60606060606061" width="3.0303030303030303" height="3.0303030303030303" style="fill:#404040;shape-rendering:crispEdges;"/>
<rect x="57.57575757575758" y="60.60606060606061" width="3.0303030303030303" height="3.0303030303030303" style="fill:#404040;shape-rendering:crispEdges;"/>
<rect x="60.60606060606061" y="60.60606060606061" width="3.0303030303030303" height="3.0303030303030303" style="fill:#404040;shape-rendering:crispEdges;"/>
<rect x="72.72727272727272" y="60.60606060606061" width="3.0303030303030303" height="3.0303030303030303" style="fill:#404040;shape-rendering:crispEdges;"/>
<rect x="75.75757575757575" y="60.60606060606061" width="3.0303030303030303" height="3.0303030303030303" style="fill:#404040;shape-rendering:crispEdges;"/>
<rect x="78.78787878787878" y="60.60606060606061" width="3.0303030303030303" height="3.0303030303030303" style="fill:#404040;shape-rendering:crispEdges;"/>
<rect x="84.84848484848484" y="60.60606060606061" width="3.0303030303030303" height="3.0303030303030303" style="fill:#404040;shape-rendering:crispEdges;"/>
<rect x="87.87878787878788" y="60.60606060606061" width="3.0303030303030303" height="3.0303030303030303" style="fill:#404040;shape-rendering:crispEdges;"/>
<rect x="96.96969696969697" y="60.60606060606061" width="3.0303030303030303" height="3.0303030303030303" style="fill:#404040;shape-rendering:crispEdges;"/>
<rect x="3.0303030303030303" y="63.63636363636363" width="3.0303030303030303" height="3.0303030303030303" style="fill:#404040;shape-rendering:crispEdges;"/>
<rect x="6.0606060606060606" y="63.63636363636363" width="3.0303030303030303" height="3.0303030303030303" style="fill:#404040;shape-rendering:crispEdges;"/>
<rect x="9.09090909090909" y="63.63636363636363" width="3.0303030303030303" height="3.0303030303030303" style="fill:#404040;shape-rendering:crispEdges;"/>
<rect x="15.151515151515152" y="63.63636363636363" width="3.0303030303030303" height="3.0303030303030303" style="fill:#404040;shape-rendering:crispEdges;"/>
<rect x="24.242424242424242" y="63.63636363636363" width="3.0303030303030303" height="3.0303030303030303" style="fill:#404040;shape-rendering:crispEdges;"/>
<rect x="27.272727272727273" y="63.63636363636363" width="3.0303030303030303" height="3.0303030303030303" style="fill:#404040;shape-rendering:crispEdges;"/>
<rect x="36.36363636363636" y="63.63636363636363" width="3.0303030303030303" height="3.0303030303030303" style="fill:#404040;shape-rendering:crispEdges;"/>
<rect x="45.45454545454545" y="63.63636363636363" width="3.0303030303030303" height="3.0303030303030303" style="fill:#404040;shape-rendering:crispEdges;"/>
<rect x="51.515151515151516" y="63.63636363636363" width="3.0303030303030303" height="3.0303030303030303" style="fill:#404040;shape-rendering:crispEdges;"/>
<rect x="57.57575757575758" y="63.63636363636363" width="3.0303030303030303" height="3.0303030303030303" style="fill:#404040;shape-rendering:crispEdges;"/>
<rect x="63.63636363636363" y="63.63636363636363" width="3.0303030303030303" height="3.0303030303030303" style="fill:#404040;shape-rendering:crispEdges;"/>
<rect x="66.66666666666667" y="63.63636363636363" width="3.0303030303030303" height="3.0303030303030303" style="fill:#404040;shape-rendering:crispEdges;"/>
<rect x="81.81818181818181" y="63.63636363636363" width="3.0303030303030303" height="3.0303030303030303" style="fill:#404040;shape-rendering:crispEdges;"/>
<rect x="90.9090909090909" y="63.63636363636363" width="3.0303030303030303" height="3.0303030303030303" style="fill:#404040;shape-rendering:crispEdges;"/>
<rect x="96.96969696969697" y="63.63636363636363" width="3.0303030303030303" height="3.0303030303030303" style="fill:#404040;shape-rendering:crispEdges;"/>
<rect x="3.0303030303030303" y="66.66666666666667" width="3.0303030303030303" height="3.0303030303030303" style="fill:#404040;shape-rendering:crispEdges;"/>
<rect x="6.0606060606060606" y="66.66666666666667" width="3.0303030303030303" height="3.0303030303030303" style="fill:#404040;shape-rendering:crispEdges;"/>
<rect x="9.09090909090909" y="66.66666666666667" width="3.0303030303030303" height="3.0303030303030303" style="fill:#404040;shape-rendering:crispEdges;"/>
<rect x="15.151515151515152" y="66.66666666666667" width="3.0303030303030303" height="3.0303030303030303" style="fill:#404040;shape-rendering:crispEdges;"/>
<rect x="18.18181818181818" y="66.66666666666667" width="3.0303030303030303" height="3.0303030303030303" style="fill:#404040;shape-rendering:crispEdges;"/>
<rect x="21.21212121212121" y="66.66666666666667" width="3.0303030303030303" height="3.0303030303030303" style="fill:#404040;shape-rendering:crispEdges;"/>
<rect x="24.242424242424242" y="66.66666666666667" width="3.0303030303030303" height="3.0303030303030303" style="fill:#404040;shape-rendering:crispEdges;"/>
<rect x="27.272727272727273" y="66.66666666666667" width="3.0303030303030303" height="3.0303030303030303" style="fill:#404040;shape-rendering:crispEdges;"/>
<rect x="39.39393939393939" y="66.66666666666667" width="3.0303030303030303" height="3.0303030303030303" style="fill:#404040;shape-rendering:crispEdges;"/>
<rect x="42.42424242424242" y="66.66666666666667" width="3.0303030303030303" height="3.0303030303030303" style="fill:#404040;shape-rendering:crispEdges;"/>
<rect x="45.45454545454545" y="66.66666666666667" width="3.0303030303030303" height="3.0303030303030303" style="fill:#404040;shape-rendering:crispEdges;"/>
<rect x="48.484848484848484" y="66.66666666666667" width="3.0303030303030303" height="3.0303030303030303" style="fill:#404040;shape-rendering:crispEdges;"/>
<rect x="51.515151515151516" y="66.66666666666667" width="3.0303030303030303" height="3.0303030303030303" style="fill:#404040;shape-rendering:crispEdges;"/>
<rect x="54.54545454545455" y="66.66666666666667" width="3.0303030303030303" height="3.0303030303030303" style="fill:#404040;shape-rendering:crispEdges;"/>
<rect x="75.75757575757575" y="66.66666666666667" width="3.0303030303030303" height="3.0303030303030303" style="fill:#404040;shape-rendering:crispEdges;"/>
<rect x="78.78787878787878" y="66.66666666666667" width="3.0303030303030303" height="3.0303030303030303" style="fill:#404040;shape-rendering:crispEdges;"/>
<rect x="81.81818181818181" y="66.66666666666667" width="3.0303030303030303" height="3.0303030303030303" style="fill:#404040;shape-rendering:crispEdges;"/>
<rect x="90.9090909090909" y="66.66666666666667" width="3.0303030303030303" height="3.0303030303030303" style="fill:#404040;shape-rendering:crispEdges;"/>
<rect x="93.93939393939394" y="66.66666666666667" width="3.0303030303030303" height="3.0303030303030303" style="fill:#404040;shape-rendering:crispEdges;"/>
<rect x="96.96969696969697" y="66.66666666666667" width="3.0303030303030303" height="3.0303030303030303" style="fill:#404040;shape-rendering:crispEdges;"/>
<rect x="0" y="69.6969696969697" width="3.0303030303030303" height="3.0303030303030303" style="fill:#404040;shape-rendering:crispEdges;"/>
<rect x="3.0303030303030303" y="69.6969696969697" width="3.0303030303030303" height="3.0303030303030303" style="fill:#404040;shape-rendering:crispEdges;"/>
<rect x="12.121212121212121" y="69.6969696969697" width="3.0303030303030303" height="3.0303030303030303" style="fill:#404040;shape-rendering:crispEdges;"/>
<rect x="21.21212121212121" y="69.6969696969697" width="3.0303030303030303" height="3.0303030303030303" style="fill:#404040;shape-rendering:crispEdges;"/>
<rect x="27.272727272727273" y="69.6969696969697" width="3.0303030303030303" height="3.0303030303030303" style="fill:#404040;shape-rendering:crispEdges;"/>
<rect x="30.303030303030305" y="69.6969696969697" width="3.0303030303030303" height="3.0303030303030303" style="fill:#404040;shape-rendering:crispEdges;"/>
<rect x="39.39393939393939" y="69.6969696969697" width="3.0303030303030303" height="3.0303030303030303" style="fill:#404040;shape-rendering:crispEdges;"/>
<rect x="42.42424242424242" y="69.6969696969697" width="3.0303030303030303" height="3.0303030303030303" style="fill:#404040;shape-rendering:crispEdges;"/>
<rect x="45.45454545454545" y="69.6969696969697" width="3.0303030303030303" height="3.0303030303030303" style="fill:#404040;shape-rendering:crispEdges;"/>
<rect x="51.515151515151516" y="69.6969696969697" width="3.0303030303030303" height="3.0303030303030303" style="fill:#404040;shape-rendering:crispEdges;"/>
<rect x="66.66666666666667" y="69.6969696969697" width="3.0303030303030303" height="3.0303030303030303" style="fill:#404040;shape-rendering:crispEdges;"/>
<rect x="69.6969696969697" y="69.6969696969697" width="3.0303030303030303" height="3.0303030303030303" style="fill:#404040;shape-rendering:crispEdges;"/>
<rect x="75.75757575757575" y="69.6969696969697" width="3.0303030303030303" height="3.0303030303030303" style="fill:#404040;shape-rendering:crispEdges;"/>
<rect x="81.81818181818181" y="69.6969696969697" width="3.0303030303030303" height="3.0303030303030303" style="fill:#404040;shape-rendering:crispEdges;"/>
<rect x="84.84848484848484" y="69.6969696969697" width="3.0303030303030303" height="3.0303030303030303" style="fill:#404040;shape-rendering:crispEdges;"/>
<rect x="90.9090909090909" y="69.6969696969697" width="3.0303030303030303" height="3.0303030303030303" style="fill:#404040;shape-rendering:crispEdges;"/>
<rect x="93.93939393939394" y="69.6969696969697" width="3.0303030303030303" height="3.0303030303030303" style="fill:#404040;shape-rendering:crispEdges;"/>
<rect x="96.96969696969697" y="69.6969696969697" width="3.0303030303030303" height="3.0303030303030303" style="fill:#404040;shape-rendering:crispEdges;"/>
<rect x="3.0303030303030303" y="72.72727272727272" width="3.0303030303030303" height="3.0303030303030303" style="fill:#404040;shape-rendering:crispEdges;"/>
<rect x="6.0606060606060606" y="72.72727272727272" width="3.0303030303030303" height="3.0303030303030303" style="fill:#404040;shape-rendering:crispEdges;"/>
<rect x="15.151515151515152" y="72.72727272727272" width="3.0303030303030303" height="3.0303030303030303" style="fill:#404040;shape-rendering:crispEdges;"/>
<rect x="18.18181818181818" y="72.72727272727272" width="3.0303030303030303" height="3.0303030303030303" style="fill:#404040;shape-rendering:crispEdges;"/>
<rect x="24.242424242424242" y="72.72727272727272" width="3.0303030303030303" height="3.0303030303030303" style="fill:#404040;shape-rendering:crispEdges;"/>
<rect x="27.272727272727273" y="72.72727272727272" width="3.0303030303030303" height="3.0303030303030303" style="fill:#404040;shape-rendering:crispEdges;"/>
<rect x="30.303030303030305" y="72.72727272727272" width="3.0303030303030303" height="3.0303030303030303" style="fill:#404040;shape-rendering:crispEdges;"/>
<rect x="36.36363636363636" y="72.72727272727272" width="3.0303030303030303" height="3.0303030303030303" style="fill:#404040;shape-rendering:crispEdges;"/>
<rect x="39.39393939393939" y="72.72727272727272" width="3.0303030303030303" height="3.0303030303030303" style="fill:#404040;shape-rendering:crispEdges;"/>
<rect x="48.484848484848484" y="72.72727272727272" width="3.0303030303030303" height="3.0303030303030303" style="fill:#404040;shape-rendering:crispEdges;"/>
<rect x="54.54545454545455" y="72.72727272727272" width="3.0303030303030303" height="3.0303030303030303" style="fill:#404040;shape-rendering:crispEdges;"/>
<rect x="57.57575757575758" y="72.72727272727272" width="3.0303030303030303" height="3.0303030303030303" style="fill:#404040;shape-rendering:crispEdges;"/>
<rect x="63.63636363636363" y="72.72727272727272" width="3.0303030303030303" height="3.0303030303030303" style="fill:#404040;shape-rendering:crispEdges;"/>
<rect x="72.72727272727272" y="72.72727272727272" width="3.0303030303030303" height="3.0303030303030303" style="fill:#404040;shape-rendering:crispEdges;"/>
<rect x="75.75757575757575" y="72.72727272727272" width="3.0303030303030303" height="3.0303030303030303" style="fill:#404040;shape-rendering:crispEdges;"/>
<rect x="78.78787878787878" y="72.72727272727272" width="3.0303030303030303" height="3.0303030303030303" style="fill:#404040;shape-rendering:crispEdges;"/>
<rect x="81.81818181818181" y="72.72727272727272" width="3.0303030303030303" height="3.0303030303030303" style="fill:#404040;shape-rendering:crispEdges;"/>
<rect x="84.84848484848484" y="72.72727272727272" width="3.0303030303030303" height="3.0303030303030303" style="fill:#404040;shape-rendering:crispEdges;"/>
<rect x="90.9090909090909" y="72.72727272727272" width="3.0303030303030303" height="3.0303030303030303" style="fill:#404040;shape-rendering:crispEdges;"/>
<rect x="93.93939393939394" y="72.72727272727272" width="3.0303030303030303" height="3.0303030303030303" style="fill:#404040;shape-rendering:crispEdges;"/>
<rect x="39.39393939393939" y="75.75757575757575" width="3.0303030303030303" height="3.0303030303030303" style="fill:#404040;shape-rendering:crispEdges;"/>
<rect x="42.42424242424242" y="75.75757575757575" width="3.0303030303030303" height="3.0303030303030303" style="fill:#404040;shape-rendering:crispEdges;"/>
<rect x="45.45454545454545" y="75.75757575757575" width="3.0303030303030303" height="3.0303030303030303" style="fill:#404040;shape-rendering:crispEdges;"/>
<rect x="60.60606060606061" y="75.75757575757575" width="3.0303030303030303" height="3.0303030303030303" style="fill:#404040;shape-rendering:crispEdges;"/>
<rect x="63.63636363636363" y="75.75757575757575" width="3.0303030303030303" height="3.0303030303030303" style="fill:#404040;shape-rendering:crispEdges;"/>
<rect x="66.66666666666667" y="75.75757575757575" width="3.0303030303030303" height="3.0303030303030303" style="fill:#404040;shape-rendering:crispEdges;"/>
<rect x="69.6969696969697" y="75.75757575757575" width="3.0303030303030303" height="3.0303030303030303" style="fill:#404040;shape-rendering:crispEdges;"/>
<rect x="72.72727272727272" y="75.75757575757575" width="3.0303030303030303" height="3.0303030303030303" style="fill:#404040;shape-rendering:crispEdges;"/>
<rect x="84.84848484848484" y="75.75757575757575" width="3.0303030303030303" height="3.0303030303030303" style="fill:#404040;shape-rendering:crispEdges;"/>
<rect x="87.87878787878788" y="75.75757575757575" width="3.0303030303030303" height="3.0303030303030303" style="fill:#404040;shape-rendering:crispEdges;"/>
<rect x="90.9090909090909" y="75.75757575757575" width="3.0303030303030303" height="3.0303030303030303" style="fill:#404040;shape-rendering:crispEdges;"/>
<rect x="93.93939393939394" y="75.75757575757575" width="3.0303030303030303" height="3.0303030303030303" style="fill:#404040;shape-rendering:crispEdges;"/>
<rect x="96.96969696969697" y="75.75757575757575" width="3.0303030303030303" height="3.0303030303030303" style="fill:#404040;shape-rendering:crispEdges;"/>
<rect x="0" y="78.78787878787878" width="3.0303030303030303" height="3.0303030303030303" style="fill:#404040;shape-rendering:crispEdges;"/>
<rect x="3.0303030303030303" y="78.78787878787878" width="3.0303030303030303" height="3.0303030303030303" style="fill:#404040;shape-rendering:crispEdges;"/>
<rect x="6.0606060606060606" y="78.78787878787878" width="3.0303030303030303" height="3.0303030303030303" style="fill:#404040;shape-rendering:crispEdges;"/>
<rect x="9.09090909090909" y="78.78787878787878" width="3.0303030303030303" height="3.0303030303030303" style="fill:#404040;shape-rendering:crispEdges;"/>
<rect x="12.121212121212121" y="78.78787878787878" width="3.0303030303030303" height="3.0303030303030303" style="fill:#404040;shape-rendering:crispEdges;"/>
<rect x="15.151515151515152" y="78.78787878787878" width="3.0303030303030303" height="3.0303030303030303" style="fill:#404040;shape-rendering:crispEdges;"/>
<rect x="18.18181818181818" y="78.78787878787878" width="3.0303030303030303" height="3.0303030303030303" style="fill:#404040;shape-rendering:crispEdges;"/>
<rect x="24.242424242424242" y="78.78787878787878" width="3.0303030303030303" height="3.0303030303030303" style="fill:#404040;shape-rendering:crispEdges;"/>
<rect x="30.303030303030305" y="78.78787878787878" width="3.0303030303030303" height="3.0303030303030303" style="fill:#404040;shape-rendering:crispEdges;"/>
<rect x="33.333333333333336" y="78.78787878787878" width="3.0303030303030303" height="3.0303030303030303" style="fill:#404040;shape-rendering:crispEdges;"/>
<rect x="45.45454545454545" y="78.78787878787878" width="3.0303030303030303" height="3.0303030303030303" style="fill:#404040;shape-rendering:crispEdges;"/>
<rect x="48.484848484848484" y="78.78787878787878" width="3.0303030303030303" height="3.0303030303030303" style="fill:#404040;shape-rendering:crispEdges;"/>
<rect x="51.515151515151516" y="78.78787878787878" width="3.0303030303030303" height="3.0303030303030303" style="fill:#404040;shape-rendering:crispEdges;"/>
<rect x="57.57575757575758" y="78.78787878787878" width="3.0303030303030303" height="3.0303030303030303" style="fill:#404040;shape-rendering:crispEdges;"/>
<rect x="63.63636363636363" y="78.78787878787878" width="3.0303030303030303" height="3.0303030303030303" style="fill:#404040;shape-rendering:crispEdges;"/>
<rect x="66.66666666666667" y="78.78787878787878" width="3.0303030303030303" height="3.0303030303030303" style="fill:#404040;shape-rendering:crispEdges;"/>
<rect x="69.6969696969697" y="78.78787878787878" width="3.0303030303030303" height="3.0303030303030303" style="fill:#404040;shape-rendering:crispEdges;"/>
<rect x="72.72727272727272" y="78.78787878787878" width="3.0303030303030303" height="3.0303030303030303" style="fill:#404040;shape-rendering:crispEdges;"/>
<rect x="78.78787878787878" y="78.78787878787878" width="3.0303030303030303" height="3.0303030303030303" style="fill:#404040;shape-rendering:crispEdges;"/>
<rect x="84.84848484848484" y="78.78787878787878" width="3.0303030303030303" height="3.0303030303030303" style="fill:#404040;shape-rendering:crispEdges;"/>
<rect x="90.9090909090909" y="78.78787878787878" width="3.0303030303030303" height="3.0303030303030303" style="fill:#404040;shape-rendering:crispEdges;"/>
<rect x="93.93939393939394" y="78.78787878787878" width="3.0303030303030303" height="3.0303030303030303" style="fill:#404040;shape-rendering:crispEdges;"/>
<rect x="0" y="81.81818181818181" width="3.0303030303030303" height="3.0303030303030303" style="fill:#404040;shape-rendering:crispEdges;"/>
<rect x="18.18181818181818" y="81.81818181818181" width="3.0303030303030303" height="3.0303030303030303" style="fill:#404040;shape-rendering:crispEdges;"/>
<rect x="30.303030303030305" y="81.81818181818181" width="3.0303030303030303" height="3.0303030303030303" style="fill:#404040;shape-rendering:crispEdges;"/>
<rect x="45.45454545454545" y="81.81818181818181" width="3.0303030303030303" height="3.0303030303030303" style="fill:#404040;shape-rendering:crispEdges;"/>
<rect x="51.515151515151516" y="81.81818181818181" width="3.0303030303030303" height="3.0303030303030303" style="fill:#404040;shape-rendering:crispEdges;"/>
<rect x="54.54545454545455" y="81.81818181818181" width="3.0303030303030303" height="3.0303030303030303" style="fill:#404040;shape-rendering:crispEdges;"/>
<rect x="60.60606060606061" y="81.81818181818181" width="3.0303030303030303" height="3.0303030303030303" style="fill:#404040;shape-rendering:crispEdges;"/>
<rect x="63.63636363636363" y="81.81818181818181" width="3.0303030303030303" height="3.0303030303030303" style="fill:#404040;shape-rendering:crispEdges;"/>
<rect x="66.66666666666667" y="81.81818181818181" width="3.0303030303030303" height="3.0303030303030303" style="fill:#404040;shape-rendering:crispEdges;"/>
<rect x="69.6969696969697" y="81.81818181818181" width="3.0303030303030303" height="3.0303030303030303" style="fill:#404040;shape-rendering:crispEdges;"/>
<rect x="72.72727272727272" y="81.81818181818181" width="3.0303030303030303" height="3.0303030303030303" style="fill:#404040;shape-rendering:crispEdges;"/>
<rect x="84.84848484848484" y="81.81818181818181" width="3.0303030303030303" height="3.0303030303030303" style="fill:#404040;shape-rendering:crispEdges;"/>
<rect x="87.87878787878788" y="81.81818181818181" width="3.0303030303030303" height="3.0303030303030303" style="fill:#404040;shape-rendering:crispEdges;"/>
<rect x="90.9090909090909" y="81.81818181818181" width="3.0303030303030303" height="3.0303030303030303" style="fill:#404040;shape-rendering:crispEdges;"/>
<rect x="93.93939393939394" y="81.81818181818181" width="3.0303030303030303" height="3.0303030303030303" style="fill:#404040;shape-rendering:crispEdges;"/>
<rect x="96.96969696969697" y="81.81818181818181" width="3.0303030303030303" height="3.0303030303030303" style="fill:#404040;shape-rendering:crispEdges;"/>
<rect x="0" y="84.84848484848484" width="3.0303030303030303" height="3.0303030303030303" style="fill:#404040;shape-rendering:crispEdges;"/>
<rect x="6.0606060606060606" y="84.84848484848484" width="3.0303030303030303" height="3.0303030303030303" style="fill:#404040;shape-rendering:crispEdges;"/>
<rect x="9.09090909090909" y="84.84848484848484" width="3.0303030303030303" height="3.0303030303030303" style="fill:#404040;shape-rendering:crispEdges;"/>
<rect x="12.121212121212121" y="84.84848484848484" width="3.0303030303030303" height="3.0303030303030303" style="fill:#404040;shape-rendering:crispEdges;"/>
<rect x="18.18181818181818" y="84.84848484848484" width="3.0303030303030303" height="3.0303030303030303" style="fill:#404040;shape-rendering:crispEdges;"/>
<rect x="30.303030303030305" y="84.84848484848484" width="3.0303030303030303" height="3.0303030303030303" style="fill:#404040;shape-rendering:crispEdges;"/>
<rect x="33.333333333333336" y="84.84848484848484" width="3.0303030303030303" height="3.0303030303030303" style="fill:#404040;shape-rendering:crispEdges;"/>
<rect x="36.36363636363636" y="84.84848484848484" width="3.0303030303030303" height="3.0303030303030303" style="fill:#404040;shape-rendering:crispEdges;"/>
<rect x="42.42424242424242" y="84.84848484848484" width="3.0303030303030303" height="3.0303030303030303" style="fill:#404040;shape-rendering:crispEdges;"/>
<rect x="48.484848484848484" y="84.84848484848484" width="3.0303030303030303" height="3.0303030303030303" style="fill:#404040;shape-rendering:crispEdges;"/>
<rect x="51.515151515151516" y="84.84848484848484" width="3.0303030303030303" height="3.0303030303030303" style="fill:#404040;shape-rendering:crispEdges;"/>
<rect x="57.57575757575758" y="84.84848484848484" width="3.0303030303030303" height="3.0303030303030303" style="fill:#404040;shape-rendering:crispEdges;"/>
<rect x="69.6969696969697" y="84.84848484848484" width="3.0303030303030303" height="3.0303030303030303" style="fill:#404040;shape-rendering:crispEdges;"/>
<rect x="72.72727272727272" y="84.84848484848484" width="3.0303030303030303" height="3.0303030303030303" style="fill:#404040;shape-rendering:crispEdges;"/>
<rect x="75.75757575757575" y="84.84848484848484" width="3.0303030303030303" height="3.0303030303030303" style="fill:#404040;shape-rendering:crispEdges;"/>
<rect x="78.78787878787878" y="84.84848484848484" width="3.0303030303030303" height="3.0303030303030303" style="fill:#404040;shape-rendering:crispEdges;"/>
<rect x="81.81818181818181" y="84.84848484848484" width="3.0303030303030303" height="3.0303030303030303" style="fill:#404040;shape-rendering:crispEdges;"/>
<rect x="84.84848484848484" y="84.84848484848484" width="3.0303030303030303" height="3.0303030303030303" style="fill:#404040;shape-rendering:crispEdges;"/>
<rect x="96.96969696969697" y="84.84848484848484" width="3.0303030303030303" height="3.0303030303030303" style="fill:#404040;shape-rendering:crispEdges;"/>
<rect x="0" y="87.87878787878788" width="3.0303030303030303" height="3.0303030303030303" style="fill:#404040;shape-rendering:crispEdges;"/>
<rect x="6.0606060606060606" y="87.87878787878788" width="3.0303030303030303" height="3.0303030303030303" style="fill:#404040;shape-rendering:crispEdges;"/>
<rect x="9.09090909090909" y="87.87878787878788" width="3.0303030303030303" height="3.0303030303030303" style="fill:#404040;shape-rendering:crispEdges;"/>
<rect x="12.121212121212121" y="87.87878787878788" width="3.0303030303030303" height="3.0303030303030303" style="fill:#404040;shape-rendering:crispEdges;"/>
<rect x="18.18181818181818" y="87.87878787878788" width="3.0303030303030303" height="3.0303030303030303" style="fill:#404040;shape-rendering:crispEdges;"/>
<rect x="24.242424242424242" y="87.87878787878788" width="3.0303030303030303" height="3.0303030303030303" style="fill:#404040;shape-rendering:crispEdges;"/>
<rect x="30.303030303030305" y="87.87878787878788" width="3.0303030303030303" height="3.0303030303030303" style="fill:#404040;shape-rendering:crispEdges;"/>
<rect x="36.36363636363636" y="87.87878787878788" width="3.0303030303030303" height="3.0303030303030303" style="fill:#404040;shape-rendering:crispEdges;"/>
<rect x="42.42424242424242" y="87.87878787878788" width="3.0303030303030303" height="3.0303030303030303" style="fill:#404040;shape-rendering:crispEdges;"/>
<rect x="54.54545454545455" y="87.87878787878788" width="3.0303030303030303" height="3.0303030303030303" style="fill:#404040;shape-rendering:crispEdges;"/>
<rect x="57.57575757575758" y="87.87878787878788" width="3.0303030303030303" height="3.0303030303030303" style="fill:#404040;shape-rendering:crispEdges;"/>
<rect x="60.60606060606061" y="87.87878787878788" width="3.0303030303030303" height="3.0303030303030303" style="fill:#404040;shape-rendering:crispEdges;"/>
<rect x="63.63636363636363" y="87.87878787878788" width="3.0303030303030303" height="3.0303030303030303" style="fill:#404040;shape-rendering:crispEdges;"/>
<rect x="72.72727272727272" y="87.87878787878788" width="3.0303030303030303" height="3.0303030303030303" style="fill:#404040;shape-rendering:crispEdges;"/>
<rect x="75.75757575757575" y="87.87878787878788" width="3.0303030303030303" height="3.0303030303030303" style="fill:#404040;shape-rendering:crispEdges;"/>
<rect x="78.78787878787878" y="87.87878787878788" width="3.0303030303030303" height="3.0303030303030303" style="fill:#404040;shape-rendering:crispEdges;"/>
<rect x="81.81818181818181" y="87.87878787878788" width="3.0303030303030303" height="3.0303030303030303" style="fill:#404040;shape-rendering:crispEdges;"/>
<rect x="84.84848484848484" y="87.87878787878788" width="3.0303030303030303" height="3.0303030303030303" style="fill:#404040;shape-rendering:crispEdges;"/>
<rect x="87.87878787878788" y="87.87878787878788" width="3.0303030303030303" height="3.0303030303030303" style="fill:#404040;shape-rendering:crispEdges;"/>
<rect x="90.9090909090909" y="87.87878787878788" width="3.0303030303030303" height="3.0303030303030303" style="fill:#404040;shape-rendering:crispEdges;"/>
<rect x="0" y="90.9090909090909" width="3.0303030303030303" height="3.0303030303030303" style="fill:#404040;shape-rendering:crispEdges;"/>
<rect x="6.0606060606060606" y="90.9090909090909" width="3.0303030303030303" height="3.0303030303030303" style="fill:#404040;shape-rendering:crispEdges;"/>
<rect x="9.09090909090909" y="90.9090909090909" width="3.0303030303030303" height="3.0303030303030303" style="fill:#404040;shape-rendering:crispEdges;"/>
<rect x="12.121212121212121" y="90.9090909090909" width="3.0303030303030303" height="3.0303030303030303" style="fill:#404040;shape-rendering:crispEdges;"/>
<rect x="18.18181818181818" y="90.9090909090909" width="3.0303030303030303" height="3.0303030303030303" style="fill:#404040;shape-rendering:crispEdges;"/>
<rect x="45.45454545454545" y="90.9090909090909" width="3.0303030303030303" height="3.0303030303030303" style="fill:#404040;shape-rendering:crispEdges;"/>
<rect x="48.484848484848484" y="90.9090909090909" width="3.0303030303030303" height="3.0303030303030303" style="fill:#404040;shape-rendering:crispEdges;"/>
<rect x="54.54545454545455" y="90.9090909090909" width="3.0303030303030303" height="3.0303030303030303" style="fill:#404040;shape-rendering:crispEdges;"/>
<rect x="60.60606060606061" y="90.9090909090909" width="3.0303030303030303" height="3.0303030303030303" style="fill:#404040;shape-rendering:crispEdges;"/>
<rect x="63.63636363636363" y="90.9090909090909" width="3.0303030303030303" height="3.0303030303030303" style="fill:#404040;shape-rendering:crispEdges;"/>
<rect x="78.78787878787878" y="90.9090909090909" width="3.0303030303030303" height="3.0303030303030303" style="fill:#404040;shape-rendering:crispEdges;"/>
<rect x="81.81818181818181" y="90.9090909090909" width="3.0303030303030303" height="3.0303030303030303" style="fill:#404040;shape-rendering:crispEdges;"/>
<rect x="90.9090909090909" y="90.9090909090909" width="3.0303030303030303" height="3.0303030303030303" style="fill:#404040;shape-rendering:crispEdges;"/>
<rect x="96.96969696969697" y="90.9090909090909" width="3.0303030303030303" height="3.0303030303030303" style="fill:#404040;shape-rendering:crispEdges;"/>
<rect x="0" y="93.93939393939394" width="3.0303030303030303" height="3.0303030303030303" style="fill:#404040;shape-rendering:crispEdges;"/>
<rect x="18.18181818181818" y="93.93939393939394" width="3.0303030303030303" height="3.0303030303030303" style="fill:#404040;shape-rendering:crispEdges;"/>
<rect x="24.242424242424242" y="93.93939393939394" width="3.0303030303030303" height="3.0303030303030303" style="fill:#404040;shape-rendering:crispEdges;"/>
<rect x="27.272727272727273" y="93.93939393939394" width="3.0303030303030303" height="3.0303030303030303" style="fill:#404040;shape-rendering:crispEdges;"/>
<rect x="33.333333333333336" y="93.93939393939394" width="3.0303030303030303" height="3.0303030303030303" style="fill:#404040;shape-rendering:crispEdges;"/>
<rect x="39.39393939393939" y="93.93939393939394" width="3.0303030303030303" height="3.0303030303030303" style="fill:#404040;shape-rendering:crispEdges;"/>
<rect x="63.63636363636363" y="93.93939393939394" width="3.0303030303030303" height="3.0303030303030303" style="fill:#404040;shape-rendering:crispEdges;"/>
<rect x="69.6969696969697" y="93.93939393939394" width="3.0303030303030303" height="3.0303030303030303" style="fill:#404040;shape-rendering:crispEdges;"/>
<rect x="75.75757575757575" y="93.93939393939394" width="3.0303030303030303" height="3.0303030303030303" style="fill:#404040;shape-rendering:crispEdges;"/>
<rect x="78.78787878787878" y="93.93939393939394" width="3.0303030303030303" height="3.0303030303030303" style="fill:#404040;shape-rendering:crispEdges;"/>
<rect x="84.84848484848484" y="93.93939393939394" width="3.0303030303030303" height="3.0303030303030303" style="fill:#404040;shape-rendering:crispEdges;"/>
<rect x="87.87878787878788" y="93.93939393939394" width="3.0303030303030303" height="3.0303030303030303" style="fill:#404040;shape-rendering:crispEdges;"/>
<rect x="0" y="96.96969696969697" width="3.0303030303030303" height="3.0303030303030303" style="fill:#404040;shape-rendering:crispEdges;"/>
<rect x="3.0303030303030303" y="96.96969696969697" width="3.0303030303030303" height="3.0303030303030303" style="fill:#404040;shape-rendering:crispEdges;"/>
<rect x="6.0606060606060606" y="96.96969696969697" width="3.0303030303030303" height="3.0303030303030303" style="fill:#404040;shape-rendering:crispEdges;"/>
<rect x="9.09090909090909" y="96.96969696969697" width="3.0303030303030303" height="3.0303030303030303" style="fill:#404040;shape-rendering:crispEdges;"/>
<rect x="12.121212121212121" y="96.96969696969697" width="3.0303030303030303" height="3.0303030303030303" style="fill:#404040;shape-rendering:crispEdges;"/>
<rect x="15.151515151515152" y="96.96969696969697" width="3.0303030303030303" height="3.0303030303030303" style="fill:#404040;shape-rendering:crispEdges;"/>
<rect x="18.18181818181818" y="96.96969696969697" width="3.0303030303030303" height="3.0303030303030303" style="fill:#404040;shape-rendering:crispEdges;"/>
<rect x="24.242424242424242" y="96.96969696969697" width="3.0303030303030303" height="3.0303030303030303" style="fill:#404040;shape-rendering:crispEdges;"/>
<rect x="27.272727272727273" y="96.96969696969697" width="3.0303030303030303" height="3.0303030303030303" style="fill:#404040;shape-rendering:crispEdges;"/>
<rect x="30.303030303030305" y="96.96969696969697" width="3.0303030303030303" height="3.0303030303030303" style="fill:#404040;shape-rendering:crispEdges;"/>
<rect x="36.36363636363636" y="96.96969696969697" width="3.0303030303030303" height="3.0303030303030303" style="fill:#404040;shape-rendering:crispEdges;"/>
<rect x="48.484848484848484" y="96.96969696969697" width="3.0303030303030303" height="3.0303030303030303" style="fill:#404040;shape-rendering:crispEdges;"/>
<rect x="51.515151515151516" y="96.96969696969697" width="3.0303030303030303" height="3.0303030303030303" style="fill:#404040;shape-rendering:crispEdges;"/>
<rect x="57.57575757575758" y="96.96969696969697" width="3.0303030303030303" height="3.0303030303030303" style="fill:#404040;shape-rendering:crispEdges;"/>
<rect x="63.63636363636363" y="96.96969696969697" width="3.0303030303030303" height="3.0303030303030303" style="fill:#404040;shape-rendering:crispEdges;"/>
<rect x="66.66666666666667" y="96.96969696969697" width="3.0303030303030303" height="3.0303030303030303" style="fill:#404040;shape-rendering:crispEdges;"/>
<rect x="69.6969696969697" y="96.96969696969697" width="3.0303030303030303" height="3.0303030303030303" style="fill:#404040;shape-rendering:crispEdges;"/>
<rect x="72.72727272727272" y="96.96969696969697" width="3.0303030303030303" height="3.0303030303030303" style="fill:#404040;shape-rendering:crispEdges;"/>
<rect x="84.84848484848484" y="96.96969696969697" width="3.0303030303030303" height="3.0303030303030303" style="fill:#404040;shape-rendering:crispEdges;"/>
<rect x="87.87878787878788" y="96.96969696969697" width="3.0303030303030303" height="3.0303030303030303" style="fill:#404040;shape-rendering:crispEdges;"/>
<rect x="93.93939393939394" y="96.96969696969697" width="3.0303030303030303" height="3.0303030303030303" style="fill:#404040;shape-rendering:crispEdges;"/>
</g>
    </svg>
    <svg x="41" y="41" width="28" height="28">
        <svg version="1.1" id="Layer_1" xmlns="http://www.w3.org/2000/svg" xmlns:xlink="http://www.w3.org/1999/xlink" x="0px" y="0px"
	 viewBox="0 0 128 128" style="enable-background:new 0 0 128 128;" xml:space="preserve">
<style type="text/css">
	.st0{fill:url(#SVGID_1_);}
	.st1{opacity:0.2;}
	.st2{fill:#FFFFFF;}
</style>
<linearGradient id="SVGID_1_" gradientUnits="userSpaceOnUse" x1="11.85" y1="116.15" x2="116.15" y2="11.85" gradientTransform="matrix(1 0 0 -1 0 128)">
	<stop  offset="0" style="stop-color:#6E75B8"/>
	<stop  offset="1" style="stop-color:#495B9D"/>
</linearGradient>
<path class="st0" d="M87.5,128h-47C18.1,128,0,109.9,0,87.5v-47C0,18.1,18.1,0,40.5,0h47C109.9,0,128,18.1,128,40.5v47
	C128,109.9,109.9,128,87.5,128z"/>
<g>
	<g class="st1">
		<polygon points="67.2,89.2 67.2,111.9 95.4,72.4 		"/>
		<polygon points="94.3,65.1 67.2,20.1 67.2,52.8 		"/>
		<polygon points="67.2,55.3 67.2,83.3 94.1,67.6 		"/>
		<polygon points="37.8,65.1 64.9,20.1 64.9,52.8 		"/>
		<polygon points="64.9,55.3 64.9,83.3 38,67.6 		"/>
		<polygon points="64.8,89.2 64.8,111.9 36.7,72.4 		"/>
	</g>
	<g>
		<g>
			<g>
				<polygon class="st2" points="65.2,87.2 65.2,109.9 93.4,70.4 				"/>
			</g>
			<g>
				<polygon class="st2" points="92.3,63.1 65.2,18.1 65.2,50.8 				"/>
				<polygon class="st2" points="65.2,53.3 65.2,81.3 92.1,65.6 				"/>
			</g>
			<g>
				<polygon class="st2" points="35.8,63.1 62.9,18.1 62.9,50.8 				"/>
				<polygon class="st2" points="62.9,53.3 62.9,81.3 36,65.6 				"/>
			</g>
			<g>
				<polygon class="st2" points="62.8,87.2 62.8,109.9 34.7,70.4 				"/>
			</g>
		</g>
	</g>
</g>
</svg>

    </svg>
    
        <g fill="#fff" text-anchor="left" font-family="DejaVu Sans,Verdana,Geneva,sans-serif" font-size="14">
            <text x="120" y="30" fill="#010101" fill-opacity=".3">Donate now with <tspan text-decoration="underline">Ethereum</tspan></text>
            <text x="120" y="30">Donate now with <tspan text-decoration="underline">Ethereum</tspan></text>
        </g>
        <g fill="#fff" text-anchor="left" font-family="DejaVu Sans,Verdana,Geneva,sans-serif" font-size="14">
            <text x="120" y="48" fill="#010101" fill-opacity=".3">to the following address:</text>
            <text x="120" y="48">to the following address:</text>
        </g>
        <g fill="#fff" text-anchor="left" font-family="DejaVu Sans,Verdana,Geneva,sans-serif" font-size="11">
            <text x="120" y="80" fill="#010101" fill-opacity=".3">0x13E8cC64F15c1C5915a0a0264Db3448555e0304b</text>
            <text x="120" y="80">0x13E8cC64F15c1C5915a0a0264Db3448555e0304b</text>
        </g>
    
</svg>